<svg id="visual" viewBox="0 0 1200 300" width="1200" height="300" xmlns="http://www.w3.org/2000/svg" xmlns:xlink="http://www.w3.org/1999/xlink" version="1.1"><path d="M0 49L55 49L55 43L109 43L109 25L164 25L164 16L218 16L218 40L273 40L273 16L327 16L327 28L382 28L382 43L436 43L436 19L491 19L491 49L545 49L545 58L600 58L600 58L655 58L655 31L709 31L709 28L764 28L764 52L818 52L818 22L873 22L873 19L927 19L927 34L982 34L982 31L1036 31L1036 46L1091 46L1091 31L1145 31L1145 25L1200 25L1200 37L1200 0L1200 0L1145 0L1145 0L1091 0L1091 0L1036 0L1036 0L982 0L982 0L927 0L927 0L873 0L873 0L818 0L818 0L764 0L764 0L709 0L709 0L655 0L655 0L600 0L600 0L545 0L545 0L491 0L491 0L436 0L436 0L382 0L382 0L327 0L327 0L273 0L273 0L218 0L218 0L164 0L164 0L109 0L109 0L55 0L55 0L0 0Z" fill="#f3f6f9"></path><path d="M0 106L55 106L55 112L109 112L109 97L164 97L164 136L218 136L218 100L273 100L273 55L327 55L327 163L382 163L382 136L436 136L436 154L491 154L491 91L545 91L545 151L600 151L600 154L655 154L655 130L709 130L709 151L764 151L764 178L818 178L818 79L873 79L873 115L927 115L927 154L982 154L982 100L1036 100L1036 178L1091 178L1091 79L1145 79L1145 133L1200 133L1200 103L1200 35L1200 23L1145 23L1145 29L1091 29L1091 44L1036 44L1036 29L982 29L982 32L927 32L927 17L873 17L873 20L818 20L818 50L764 50L764 26L709 26L709 29L655 29L655 56L600 56L600 56L545 56L545 47L491 47L491 17L436 17L436 41L382 41L382 26L327 26L327 14L273 14L273 38L218 38L218 14L164 14L164 23L109 23L109 41L55 41L55 47L0 47Z" fill="#e7f1fa"></path><path d="M0 178L55 178L55 199L109 199L109 172L164 172L164 166L218 166L218 193L273 193L273 169L327 169L327 220L382 220L382 220L436 220L436 190L491 190L491 175L545 175L545 211L600 211L600 202L655 202L655 229L709 229L709 220L764 220L764 259L818 259L818 202L873 202L873 238L927 238L927 199L982 199L982 172L1036 172L1036 232L1091 232L1091 199L1145 199L1145 160L1200 160L1200 232L1200 101L1200 131L1145 131L1145 77L1091 77L1091 176L1036 176L1036 98L982 98L982 152L927 152L927 113L873 113L873 77L818 77L818 176L764 176L764 149L709 149L709 128L655 128L655 152L600 152L600 149L545 149L545 89L491 89L491 152L436 152L436 134L382 134L382 161L327 161L327 53L273 53L273 98L218 98L218 134L164 134L164 95L109 95L109 110L55 110L55 104L0 104Z" fill="#dbebfc"></path><path d="M0 238L55 238L55 217L109 217L109 220L164 220L164 217L218 217L218 238L273 238L273 235L327 235L327 268L382 268L382 250L436 250L436 253L491 253L491 226L545 226L545 271L600 271L600 250L655 250L655 274L709 274L709 253L764 253L764 280L818 280L818 232L873 232L873 277L927 277L927 244L982 244L982 229L1036 229L1036 259L1091 259L1091 226L1145 226L1145 229L1200 229L1200 268L1200 230L1200 158L1145 158L1145 197L1091 197L1091 230L1036 230L1036 170L982 170L982 197L927 197L927 236L873 236L873 200L818 200L818 257L764 257L764 218L709 218L709 227L655 227L655 200L600 200L600 209L545 209L545 173L491 173L491 188L436 188L436 218L382 218L382 218L327 218L327 167L273 167L273 191L218 191L218 164L164 164L164 170L109 170L109 197L55 197L55 176L0 176Z" fill="#cfe6fe"></path><path d="M0 301L55 301L55 301L109 301L109 301L164 301L164 301L218 301L218 301L273 301L273 301L327 301L327 301L382 301L382 301L436 301L436 301L491 301L491 301L545 301L545 301L600 301L600 301L655 301L655 301L709 301L709 301L764 301L764 301L818 301L818 301L873 301L873 301L927 301L927 301L982 301L982 301L1036 301L1036 301L1091 301L1091 301L1145 301L1145 301L1200 301L1200 301L1200 266L1200 227L1145 227L1145 224L1091 224L1091 257L1036 257L1036 227L982 227L982 242L927 242L927 275L873 275L873 230L818 230L818 278L764 278L764 251L709 251L709 272L655 272L655 248L600 248L600 269L545 269L545 224L491 224L491 251L436 251L436 248L382 248L382 266L327 266L327 233L273 233L273 236L218 236L218 215L164 215L164 218L109 218L109 215L55 215L55 236L0 236Z" fill="#c2e0ff"></path></svg>