<svg xmlns="http://www.w3.org/2000/svg" version="1.1" xmlns:xlink="http://www.w3.org/1999/xlink" xmlns:svgjs="http://svgjs.com/svgjs" width="600" height="800" preserveAspectRatio="none" viewBox="0 0 600 800">
    <g mask="url(&quot;#SvgjsMask1449&quot;)" fill="none">
        <rect width="600" height="800" x="0" y="0" fill="url(#SvgjsLinearGradient1450)"></rect>
        <path d="M0 0L45.43 0L0 102.02z" fill="rgba(255, 255, 255, .1)"></path>
        <path d="M0 102.02L45.43 0L125.47999999999999 0L0 433.66999999999996z" fill="rgba(255, 255, 255, .075)"></path>
        <path d="M0 433.66999999999996L125.47999999999999 0L174.20999999999998 0L0 631.9499999999999z" fill="rgba(255, 255, 255, .05)"></path>
        <path d="M0 631.9499999999999L174.20999999999998 0L468.59999999999997 0L0 686.53z" fill="rgba(255, 255, 255, .025)"></path>
        <path d="M600 800L374.26 800L600 519.52z" fill="rgba(0, 0, 0, .1)"></path>
        <path d="M600 519.52L374.26 800L192.94 800L600 333.40999999999997z" fill="rgba(0, 0, 0, .075)"></path>
        <path d="M600 333.40999999999997L192.94 800L90.85 800L600 164.77999999999997z" fill="rgba(0, 0, 0, .05)"></path>
        <path d="M600 164.77999999999997L90.85000000000002 800L37.25000000000002 800L600 56.96999999999997z" fill="rgba(0, 0, 0, .025)"></path>
    </g>
    <defs>
        <mask id="SvgjsMask1449">
            <rect width="600" height="800" fill="#ffffff"></rect>
        </mask>
        <linearGradient x1="-8.33%" y1="93.75%" x2="108.33%" y2="6.25%" gradientUnits="userSpaceOnUse" id="SvgjsLinearGradient1450">
            <stop stop-color="rgba(0, 114, 229, 1)" offset="0"></stop>
            <stop stop-color="rgba(0, 89, 178, 1)" offset="1"></stop>
        </linearGradient>
    </defs>
</svg>